<?xml version="1.0" encoding="UTF-8"?>
<svg id="Layer_1" data-name="Layer 1" xmlns="http://www.w3.org/2000/svg" viewBox="0 0 330.91 127.58">
  <defs>
    <style>
      .cls-1 {
        fill: #1638a1;
      }

      .cls-1, .cls-2, .cls-3, .cls-4 {
        stroke-width: 0px;
      }

      .cls-5 {
        opacity: .65;
      }

      .cls-2 {
        fill: none;
      }

      .cls-3 {
        fill: #6173ba;
      }

      .cls-4 {
        fill: #f93b6b;
      }

      .cls-6 {
        fill: #848484;
        font-family: Poppins-Bold, Poppins;
        font-size: 18.38px;
        font-weight: 700;
        letter-spacing: .2em;
      }

      .cls-7 {
        font-family: Poppins-SemiBold, Poppins;
        font-size: 50px;
        font-weight: 600;
        letter-spacing: -.03em;
      }
    </style>
  </defs>
  <text class="cls-7" transform="translate(162.34 64.93)"><tspan x="0" y="0">RSMSP</tspan></text>
  <text class="cls-6" transform="translate(166.93 98.63)"><tspan x="0" y="0">Health Care</tspan></text>
  <g>
    <path class="cls-3" d="M52.6,88.07c1.04-1.01,2.7-1,3.71.04l.07.08c1.01,1.04,1,2.7-.04,3.71-.51.5-1.17.75-1.84.75s-1.36-.26-1.88-.79l-.07-.08c-1.01-1.04-1-2.7.04-3.71Z"/>
    <g class="cls-5">
      <path class="cls-1" d="M24.35,60.54h6.98v-6.98c0-1.45,1.18-2.63,2.63-2.63s2.63,1.18,2.63,2.63v6.98h6.98c1.45,0,2.63,1.18,2.63,2.63s-1.18,2.63-2.63,2.63h-6.98v6.98c0,1.45-1.18,2.63-2.63,2.63s-2.63-1.18-2.63-2.63v-6.98h-6.98c-1.45,0-2.63-1.18-2.63-2.63s1.18-2.63,2.63-2.63Z"/>
    </g>
    <path class="cls-4" d="M10.85,63.17c0,12.74,10.37,23.11,23.11,23.11s23.11-10.37,23.11-23.11-10.37-23.11-23.11-23.11c-1.02,0-2.03.07-3.01.2,2.96-14.43,15.39-24.98,30.02-24.98,8.5,0,16.41,3.5,22.27,9.84.5.54,1.2.85,1.93.85s1.43-.31,1.93-.85c5.85-6.35,13.76-9.84,22.27-9.84,16.92,0,30.68,14.15,30.68,31.54,0,3.82-1.39,8.33-4.1,13.46h-24.64l-6.46-22.52c-.32-1.12-1.33-1.89-2.49-1.9-1.16-.02-2.19.74-2.54,1.84l-12.81,41.04-5.1-16.36c-.34-1.1-1.36-1.84-2.51-1.84h-13.65c-1.45,0-2.63,1.18-2.63,2.63s1.18,2.63,2.63,2.63h11.72l7.04,22.55c.34,1.1,1.36,1.84,2.51,1.84s2.16-.75,2.51-1.84l12.7-40.7,4.59,15.99c.32,1.13,1.35,1.9,2.52,1.9h23.51c-4.7,7.23-11.65,15.47-20.73,24.5-11.34,11.28-22.82,20.59-26.94,23.85-3.47-2.74-12.14-9.77-21.53-18.62-1.06-.99-2.72-.95-3.71.11-.99,1.05-.95,2.72.11,3.71,12.32,11.61,23.43,20.13,23.54,20.22.47.36,1.03.54,1.59.54s1.12-.18,1.59-.54c.15-.11,14.68-11.26,29.01-25.51,10.57-10.51,18.33-19.96,23.23-28.26h3.67c1.45,0,2.63-1.18,2.63-2.63s-1.18-2.63-2.63-2.63h-.87c2.33-4.96,3.5-9.45,3.5-13.46,0-20.29-16.12-36.79-35.93-36.79-9.08,0-17.57,3.38-24.2,9.59-6.62-6.2-15.12-9.59-24.2-9.59-17.99,0-33.14,13.56-35.59,31.69-8.5,3.41-14.52,11.74-14.52,21.45ZM16.1,63.17c0-9.84,8.01-17.85,17.85-17.85s17.85,8.01,17.85,17.85-8.01,17.85-17.85,17.85-17.85-8.01-17.85-17.85Z"/>
  </g>
  <rect class="cls-2" width="330.91" height="127.58"/>
</svg>